<?xml version="1.0" encoding="UTF-8"?>
<svg id="_Слой_1" data-name=" Слой 1" xmlns="http://www.w3.org/2000/svg" xmlns:xlink="http://www.w3.org/1999/xlink" viewBox="0 0 585.03 354.31">
  <defs>
    <style>
      .cls-1 {
        fill: url(#_Безымянный_градиент_16);
        stroke-width: 0px;
      }
    </style>
    <linearGradient id="_Безымянный_градиент_16" data-name="Безымянный градиент 16" x1="0" y1="177.16" x2="585.03" y2="177.16" gradientUnits="userSpaceOnUse">
      <stop offset="0" stop-color="#6853bf"/>
      <stop offset=".63" stop-color="#2e8fce"/>
      <stop offset="1" stop-color="#11afd7"/>
    </linearGradient>
  </defs>
  <path class="cls-1" d="M195.74,202.69v-46.02c0-3.06-2.48-5.54-5.55-5.54h-74.72c-15.77,0-28.55,12.79-28.55,28.56s12.78,28.55,28.55,28.55h74.72c3.06,0,5.54-2.48,5.54-5.54h0ZM111.98,179.68c0-4.17,3.38-7.55,7.54-7.55s7.55,3.38,7.55,7.55-3.38,7.55-7.55,7.55-7.54-3.38-7.54-7.55ZM164.8,179.68c0-4.17,3.38-7.55,7.54-7.55s7.55,3.38,7.55,7.55-3.38,7.55-7.55,7.55-7.54-3.38-7.54-7.55ZM486.15,229.22c0-8.51-6.9-15.42-15.41-15.42h-66.05c-11.6,0-17.9-8.32-19.45-15.45-.25-1.17.19-3.26,1.84-3.26h83.67c8.51,0,15.41-6.9,15.41-15.41s-6.9-15.41-15.41-15.41h-83.67c-1.65,0-2.09-2.09-1.84-3.26,1.55-7.13,7.85-15.45,19.45-15.45h66.05c8.51,0,15.41-6.9,15.41-15.42s-6.9-15.42-15.41-15.42h-69.73c-30.06,0-45.15,22.37-51.26,42.98-.15.48-.73,2.99-1.95,2.99h-29.61v37.97h29.61c1.22,0,1.8,2.51,1.95,2.99,6.11,20.62,21.2,42.98,51.26,42.98h69.73c8.51,0,15.41-6.9,15.41-15.42h0ZM115.8,60.61h3.27c18.36,0,34.26,2.68,47.67,8.02,13.42,5.35,24.39,13.1,32.94,23.24,8.54,10.14,14.89,22.24,19.04,36.29,2.37,8.04,4.05,16.62,5.06,25.7h69.99c-1.48-18.11-4.81-34.66-10.01-49.66-7.27-20.92-17.89-38.69-31.86-53.3-13.98-14.61-31.14-25.67-51.51-33.18-20.36-7.51-43.64-11.26-69.83-11.26h-14.77v54.14h.01ZM214.41,236.09c-7.03,17.97-18.61,32.1-34.74,42.4-15.92,10.17-37.22,15.31-63.88,15.44v54.14c32.6-.09,60.29-4.48,83.04-13.17,23-8.78,41.52-21,55.58-36.65,14.05-15.65,24.27-33.9,30.66-54.74,3.95-12.89,6.67-26.41,8.18-40.56h-70.25c-1.72,11.81-4.59,22.86-8.6,33.13h.01ZM0,6.47h66.7v341.62H0V6.47ZM573.99,108.29c-7.35-21.4-18.37-40.25-33.06-56.54s-32.98-28.99-54.86-38.09c-21.88-9.1-47.36-13.66-76.42-13.66-38.17,0-70.23,7.87-96.18,23.6-25.96,15.73-45.56,37.05-58.81,63.96-10.02,20.34-16.25,42.44-18.69,66.3h70.15c1.12-7.86,2.81-15.51,5.08-22.94,4.47-14.61,11.14-27.59,20-38.93s19.92-20.2,33.18-26.59c13.26-6.39,28.59-9.58,46-9.58s31.9,3.08,44.92,9.22c13.01,6.15,23.96,14.77,32.82,25.87,8.86,11.1,15.61,24,20.24,38.69,4.63,14.7,6.95,30.58,6.95,47.67,0,15.97-2.12,31.23-6.35,45.76-4.23,14.54-10.7,27.51-19.4,38.93-8.71,11.42-19.61,20.36-32.7,26.83-13.1,6.47-28.59,9.7-46.48,9.7s-33.46-3.19-46.71-9.58c-13.26-6.38-24.28-15.25-33.06-26.59s-15.33-24.27-19.64-38.81c-1.98-6.66-3.48-13.52-4.55-20.56h-70.2c1.65,14.44,4.72,28.4,9.23,41.88,7.1,21.24,17.88,40.09,32.34,56.54,14.45,16.45,32.82,29.39,55.1,38.81s48.51,14.13,78.7,14.13c37.05,0,68.51-7.7,94.39-23.12,25.87-15.41,45.52-36.45,58.93-63.12,13.42-26.67,20.12-56.93,20.12-90.8,0-24.59-3.68-47.59-11.02-68.99h-.02Z"/>
</svg>
